<svg version="1.1" id="Layer_1" xmlns="http://www.w3.org/2000/svg" xmlns:xlink="http://www.w3.org/1999/xlink" x="0px" y="0px"
	 width="100%" viewBox="0 0 2560 1621" enable-background="new 0 0 2560 1621" xml:space="preserve">
<path fill="#FFFFFF" opacity="1.000000" stroke="none" 
	d="
M1.000000,1042.000000 
	C1.000000,859.971985 1.000000,677.943909 1.468657,495.457886 
	C77.505104,494.999908 153.072906,494.999908 229.000000,494.999908 
	C229.000000,330.044403 229.000000,165.522202 229.000000,1.000000 
	C486.028046,1.000000 743.056091,1.000000 1000.543640,1.369186 
	C1001.902405,3.244870 1002.803223,4.750397 1003.700562,6.258023 
	C1012.988037,21.862177 1022.300903,37.451294 1031.554565,53.075512 
	C1040.151855,67.591331 1048.702515,82.134819 1057.243164,96.684052 
	C1067.658325,114.426071 1077.965698,132.231857 1088.458374,149.927750 
	C1100.838867,170.807343 1113.445435,191.552948 1125.808594,212.442780 
	C1136.118042,229.862778 1146.124512,247.462082 1156.433716,264.882263 
	C1168.796387,285.772308 1181.415283,306.510681 1193.778931,327.400177 
	C1205.071045,346.479248 1216.100098,365.713928 1227.375732,384.802856 
	C1237.759766,402.382446 1248.333374,419.849915 1258.791992,437.385620 
	C1264.288818,446.602142 1269.717896,455.859100 1275.434570,465.532684 
	C1280.415405,456.902863 1285.001831,448.796692 1289.739868,440.780121 
	C1299.961670,423.485840 1310.329712,406.277771 1320.510620,388.959473 
	C1331.260254,370.673645 1341.793457,352.260498 1352.547607,333.977234 
	C1362.731567,316.663391 1373.151245,299.488068 1383.335571,282.174438 
	C1394.090210,263.891235 1404.604370,245.466354 1415.378784,227.194946 
	C1428.117065,205.592911 1441.057983,184.110443 1453.841431,162.534897 
	C1462.357666,148.161362 1470.727661,133.701202 1479.207642,119.306046 
	C1489.323242,102.134293 1499.495972,84.996140 1509.626465,67.833183 
	C1519.183105,51.642456 1528.782959,35.476604 1538.226929,19.220253 
	C1541.687012,13.264380 1544.753784,7.080105 1548.000000,0.999996 
	C1805.361328,1.000000 2062.722656,1.000000 2320.541992,1.468657 
	C2321.000000,165.869324 2321.000000,329.801331 2321.000000,494.723694 
	C2397.328125,494.723694 2473.127930,494.723694 2548.641602,494.723694 
	C2548.641602,677.784363 2548.641602,859.854004 2548.641602,1042.321899 
	C2432.546143,1042.321899 2316.808350,1042.321899 2201.364746,1042.321899 
	C2201.364746,1049.801025 2201.364746,1056.878906 2201.364746,1064.159668 
	C2243.683350,1064.159668 2285.637207,1064.159668 2327.794922,1064.159668 
	C2327.794922,1224.119629 2327.794922,1383.856079 2327.794922,1543.796143 
	C2044.212646,1543.796143 1760.811157,1543.796143 1477.031250,1543.796143 
	C1477.031250,1459.249268 1477.031250,1374.881104 1477.031250,1289.100830 
	C1472.498535,1296.712158 1468.735229,1303.150269 1464.858521,1309.519409 
	C1452.814087,1329.307373 1440.687622,1349.045532 1428.666626,1368.847656 
	C1416.985107,1388.090332 1405.409790,1407.397339 1393.759766,1426.658936 
	C1381.938965,1446.202881 1370.096802,1465.733887 1358.240845,1485.256470 
	C1345.300293,1506.564941 1332.319824,1527.848999 1319.381592,1549.158691 
	C1308.114868,1567.715332 1296.841309,1586.268066 1285.660400,1604.876343 
	C1282.286255,1610.491699 1279.211670,1616.286987 1276.000000,1622.000000 
	C1275.555542,1622.000000 1275.111084,1622.000000 1274.331787,1621.627686 
	C1272.329834,1618.335815 1270.735840,1615.371460 1268.984009,1612.503540 
	C1258.418945,1595.207397 1247.800293,1577.944092 1237.233643,1560.649170 
	C1226.336426,1542.813110 1215.463257,1524.962402 1204.606201,1507.101807 
	C1193.332397,1488.555298 1182.115112,1469.974365 1170.827881,1451.436035 
	C1159.283813,1432.476440 1147.689575,1413.547729 1136.109009,1394.610474 
	C1124.529541,1375.675049 1112.927490,1356.753540 1101.358765,1337.811646 
	C1092.105591,1322.661011 1082.887573,1307.489014 1073.653931,1292.326538 
	C1073.371582,1292.388306 1073.089233,1292.450073 1072.806885,1292.511841 
	C1072.806885,1376.321777 1072.806885,1460.131836 1072.806885,1543.674805 
	C788.555969,1543.674805 504.849274,1543.674805 221.302902,1543.674805 
	C221.302902,1383.628662 221.302902,1223.907715 221.302902,1063.793213 
	C264.006775,1063.793213 306.408813,1063.793213 348.696167,1063.793213 
	C348.696167,1056.321777 348.696167,1049.248169 348.696167,1042.000000 
	C232.595001,1042.000000 116.797501,1042.000000 1.000000,1042.000000 
M38.031517,533.934937 
	C38.031517,690.536621 38.031517,847.138367 38.031517,1004.302429 
	C154.281052,1004.302429 270.005676,1004.302429 385.938324,1004.302429 
	C385.938324,1036.953003 385.938324,1069.040283 385.938324,1101.706787 
	C343.619385,1101.706787 301.558075,1101.706787 259.409851,1101.706787 
	C259.409851,1236.803711 259.409851,1371.320679 259.409851,1505.728516 
	C518.074158,1505.728516 776.326843,1505.728516 1035.178711,1505.728516 
	C1035.178711,1389.828491 1035.178711,1274.198364 1035.178711,1158.568359 
	C1035.475342,1158.509888 1035.771973,1158.451294 1036.068604,1158.392822 
	C1115.535156,1288.637695 1195.001587,1418.882446 1274.820679,1549.705200 
	C1276.247314,1547.503784 1277.256714,1546.032227 1278.180420,1544.508545 
	C1355.783569,1416.508179 1433.378296,1288.502686 1510.996826,1160.511841 
	C1511.915894,1158.996460 1513.133789,1157.662231 1514.344116,1156.328491 
	C1514.344116,1156.328491 1514.499878,1156.307983 1514.585938,1157.197754 
	C1514.585938,1273.300049 1514.585938,1389.402344 1514.585938,1505.639893 
	C1773.578735,1505.639893 2031.945557,1505.639893 2290.703613,1505.639893 
	C2290.703613,1503.810059 2290.703613,1502.337524 2290.703613,1500.865112 
	C2290.703613,1369.703857 2290.677979,1238.542725 2290.807373,1107.381592 
	C2290.812012,1102.648926 2289.344482,1101.616089 2284.876221,1101.635132 
	C2246.378418,1101.799805 2207.879883,1101.729858 2169.381348,1101.729858 
	C2167.442139,1101.729858 2165.502930,1101.729736 2163.410645,1101.729736 
	C2163.410645,1068.965698 2163.410645,1036.885376 2163.410645,1004.195923 
	C2279.568848,1004.195923 2395.453369,1004.195923 2511.473145,1004.195923 
	C2511.473145,846.548523 2511.473145,689.511047 2511.473145,531.876343 
	C2395.206299,531.876343 2279.326660,531.876343 2163.543457,531.876343 
	C2163.543457,506.722900 2163.543457,482.169312 2163.543457,457.091309 
	C2203.515869,457.091309 2243.083252,457.091309 2282.703857,457.091309 
	C2282.703857,317.170074 2282.703857,177.779083 2282.703857,38.032341 
	C2280.899414,38.032341 2279.427490,38.032345 2277.955811,38.032345 
	C2043.798828,38.032326 1809.641968,38.039669 1575.484985,37.960133 
	C1572.075073,37.958973 1570.134033,38.939869 1568.391357,41.946449 
	C1556.619019,62.257195 1544.638184,82.447182 1532.727539,102.677818 
	C1449.352417,244.293396 1365.979248,385.910004 1282.600464,527.523376 
	C1278.733643,534.091064 1272.276245,534.239868 1268.527954,527.903870 
	C1172.984863,366.400238 1077.424072,204.906998 981.971924,43.349667 
	C979.697144,39.499413 977.372925,37.910965 972.713196,37.913666 
	C739.389648,38.048828 506.066010,38.032307 272.742371,38.032307 
	C270.792969,38.032307 268.843567,38.032307 266.800720,38.032307 
	C266.800720,177.960114 266.800720,317.351379 266.800720,457.412048 
	C306.769775,457.412048 346.314026,457.412048 385.811096,457.412048 
	C385.811096,482.645355 385.811096,507.206543 385.811096,532.081299 
	C383.277161,532.081299 381.131348,532.081299 378.985535,532.081299 
	C267.823486,532.081299 156.661453,532.080383 45.499413,532.087463 
	C43.335396,532.087646 41.171383,532.181274 38.516232,532.170410 
	C38.155785,532.347961 38.040001,532.627014 38.031517,533.934937 
z"/>
<path fill="#000000" opacity="1.000000" stroke="none" 
	d="
M1276.468628,1622.000000 
	C1279.211670,1616.286987 1282.286255,1610.491699 1285.660400,1604.876343 
	C1296.841309,1586.268066 1308.114868,1567.715332 1319.381592,1549.158691 
	C1332.319824,1527.848999 1345.300293,1506.564941 1358.240845,1485.256470 
	C1370.096802,1465.733887 1381.938965,1446.202881 1393.759766,1426.658936 
	C1405.409790,1407.397339 1416.985107,1388.090332 1428.666626,1368.847656 
	C1440.687622,1349.045532 1452.814087,1329.307373 1464.858521,1309.519409 
	C1468.735229,1303.150269 1472.498535,1296.712158 1477.031250,1289.100830 
	C1477.031250,1374.881104 1477.031250,1459.249268 1477.031250,1543.796143 
	C1760.811157,1543.796143 2044.212646,1543.796143 2327.794922,1543.796143 
	C2327.794922,1383.856079 2327.794922,1224.119629 2327.794922,1064.159668 
	C2285.637207,1064.159668 2243.683350,1064.159668 2201.364746,1064.159668 
	C2201.364746,1056.878906 2201.364746,1049.801025 2201.364746,1042.321899 
	C2316.808350,1042.321899 2432.546143,1042.321899 2548.641602,1042.321899 
	C2548.641602,859.854004 2548.641602,677.784363 2548.641602,494.723694 
	C2473.127930,494.723694 2397.328125,494.723694 2321.000000,494.723694 
	C2321.000000,329.801331 2321.000000,165.869324 2321.000000,1.468657 
	C2400.989014,1.000000 2480.977783,1.000000 2560.983398,1.000000 
	C2560.983398,541.247253 2560.983398,1081.494507 2560.983398,1622.000000 
	C2132.979004,1622.000000 1704.958130,1622.000000 1276.468628,1622.000000 
z"/>
<path fill="#000000" opacity="1.000000" stroke="none" 
	d="
M1.000000,1042.468628 
	C116.797501,1042.000000 232.595001,1042.000000 348.696167,1042.000000 
	C348.696167,1049.248169 348.696167,1056.321777 348.696167,1063.793213 
	C306.408813,1063.793213 264.006775,1063.793213 221.302902,1063.793213 
	C221.302902,1223.907715 221.302902,1383.628662 221.302902,1543.674805 
	C504.849274,1543.674805 788.555969,1543.674805 1072.806885,1543.674805 
	C1072.806885,1460.131836 1072.806885,1376.321777 1072.806885,1292.511841 
	C1073.089233,1292.450073 1073.371582,1292.388306 1073.653931,1292.326538 
	C1082.887573,1307.489014 1092.105591,1322.661011 1101.358765,1337.811646 
	C1112.927490,1356.753540 1124.529541,1375.675049 1136.109009,1394.610474 
	C1147.689575,1413.547729 1159.283813,1432.476440 1170.827881,1451.436035 
	C1182.115112,1469.974365 1193.332397,1488.555298 1204.606201,1507.101807 
	C1215.463257,1524.962402 1226.336426,1542.813110 1237.233643,1560.649170 
	C1247.800293,1577.944092 1258.418945,1595.207397 1268.984009,1612.503540 
	C1270.735840,1615.371460 1272.329834,1618.335815 1273.998413,1621.627686 
	C849.766846,1622.000000 425.533661,1622.000000 1.000000,1622.000000 
	C1.000000,1428.979248 1.000000,1235.958252 1.000000,1042.468628 
z"/>
<path fill="#000000" opacity="1.000000" stroke="none" 
	d="
M1547.531372,0.999996 
	C1544.753784,7.080105 1541.687012,13.264380 1538.226929,19.220253 
	C1528.782959,35.476604 1519.183105,51.642456 1509.626465,67.833183 
	C1499.495972,84.996140 1489.323242,102.134293 1479.207642,119.306046 
	C1470.727661,133.701202 1462.357666,148.161362 1453.841431,162.534897 
	C1441.057983,184.110443 1428.117065,205.592911 1415.378784,227.194946 
	C1404.604370,245.466354 1394.090210,263.891235 1383.335571,282.174438 
	C1373.151245,299.488068 1362.731567,316.663391 1352.547607,333.977234 
	C1341.793457,352.260498 1331.260254,370.673645 1320.510620,388.959473 
	C1310.329712,406.277771 1299.961670,423.485840 1289.739868,440.780121 
	C1285.001831,448.796692 1280.415405,456.902863 1275.434570,465.532684 
	C1269.717896,455.859100 1264.288818,446.602142 1258.791992,437.385620 
	C1248.333374,419.849915 1237.759766,402.382446 1227.375732,384.802856 
	C1216.100098,365.713928 1205.071045,346.479248 1193.778931,327.400177 
	C1181.415283,306.510681 1168.796387,285.772308 1156.433716,264.882263 
	C1146.124512,247.462082 1136.118042,229.862778 1125.808594,212.442780 
	C1113.445435,191.552948 1100.838867,170.807343 1088.458374,149.927750 
	C1077.965698,132.231857 1067.658325,114.426071 1057.243164,96.684052 
	C1048.702515,82.134819 1040.151855,67.591331 1031.554565,53.075512 
	C1022.300903,37.451294 1012.988037,21.862177 1003.700562,6.258023 
	C1002.803223,4.750397 1001.902405,3.244870 1001.001587,1.369186 
	C1183.020874,1.000000 1365.041870,1.000000 1547.531372,0.999996 
z"/>
<path fill="#000000" opacity="1.000000" stroke="none" 
	d="
M228.531342,1.000000 
	C229.000000,165.522202 229.000000,330.044403 229.000000,494.999908 
	C153.072906,494.999908 77.505104,494.999908 1.468657,494.999939 
	C1.000000,330.433136 1.000000,165.866302 1.000000,1.000000 
	C76.687294,1.000000 152.374985,1.000000 228.531342,1.000000 
z"/>
<path fill="#F8E618" opacity="1.000000" stroke="none" 
	d="
M1514.212158,1156.243530 
	C1513.133789,1157.662231 1511.915894,1158.996460 1510.996826,1160.511841 
	C1433.378296,1288.502686 1355.783569,1416.508179 1278.180420,1544.508545 
	C1277.256714,1546.032227 1276.247314,1547.503784 1274.820679,1549.705200 
	C1195.001587,1418.882446 1115.535156,1288.637695 1036.068604,1158.392822 
	C1035.771973,1158.451294 1035.475342,1158.509888 1035.178711,1158.568359 
	C1035.178711,1274.198364 1035.178711,1389.828491 1035.178711,1505.728516 
	C776.326843,1505.728516 518.074158,1505.728516 259.409851,1505.728516 
	C259.409851,1371.320679 259.409851,1236.803711 259.409851,1101.706787 
	C301.558075,1101.706787 343.619385,1101.706787 385.938324,1101.706787 
	C385.938324,1069.040283 385.938324,1036.953003 385.938324,1004.302429 
	C270.005676,1004.302429 154.281052,1004.302429 38.031517,1004.302429 
	C38.031517,847.138367 38.031517,690.536621 38.274021,533.381714 
	C38.741257,532.679565 38.904873,532.480530 39.007366,532.231262 
	C41.171383,532.181274 43.335396,532.087646 45.499413,532.087463 
	C156.661453,532.080383 267.823486,532.081299 378.985535,532.081299 
	C381.131348,532.081299 383.277161,532.081299 385.811096,532.081299 
	C385.811096,507.206543 385.811096,482.645355 385.811096,457.412048 
	C346.314026,457.412048 306.769775,457.412048 266.800720,457.412048 
	C266.800720,317.351379 266.800720,177.960114 266.800720,38.032307 
	C268.843567,38.032307 270.792969,38.032307 272.742371,38.032307 
	C506.066010,38.032307 739.389648,38.048828 972.713196,37.913666 
	C977.372925,37.910965 979.697144,39.499413 981.971924,43.349667 
	C1077.424072,204.906998 1172.984863,366.400238 1268.527954,527.903870 
	C1272.276245,534.239868 1278.733643,534.091064 1282.600464,527.523376 
	C1365.979248,385.910004 1449.352417,244.293396 1532.727539,102.677818 
	C1544.638184,82.447182 1556.619019,62.257195 1568.391357,41.946449 
	C1570.134033,38.939869 1572.075073,37.958973 1575.484985,37.960133 
	C1809.641968,38.039669 2043.798828,38.032326 2277.955811,38.032345 
	C2279.427490,38.032345 2280.899414,38.032341 2282.703857,38.032341 
	C2282.703857,177.779083 2282.703857,317.170074 2282.703857,457.091309 
	C2243.083252,457.091309 2203.515869,457.091309 2163.543457,457.091309 
	C2163.543457,482.169312 2163.543457,506.722900 2163.543457,531.876343 
	C2279.326660,531.876343 2395.206299,531.876343 2511.473145,531.876343 
	C2511.473145,689.511047 2511.473145,846.548523 2511.473145,1004.195923 
	C2395.453369,1004.195923 2279.568848,1004.195923 2163.410645,1004.195923 
	C2163.410645,1036.885376 2163.410645,1068.965698 2163.410645,1101.729736 
	C2165.502930,1101.729736 2167.442139,1101.729858 2169.381348,1101.729858 
	C2207.879883,1101.729858 2246.378418,1101.799805 2284.876221,1101.635132 
	C2289.344482,1101.616089 2290.812012,1102.648926 2290.807373,1107.381592 
	C2290.677979,1238.542725 2290.703613,1369.703857 2290.703613,1500.865112 
	C2290.703613,1502.337524 2290.703613,1503.810059 2290.703613,1505.639893 
	C2031.945557,1505.639893 1773.578735,1505.639893 1514.585938,1505.639893 
	C1514.585938,1389.402344 1514.585938,1273.300049 1514.642822,1156.557617 
	C1514.537231,1156.026123 1514.374634,1156.134766 1514.212158,1156.243530 
M1545.685791,1005.867004 
	C1545.438232,1005.325378 1545.190674,1004.783691 1544.019409,1004.129333 
	C1363.475586,1004.129333 1182.931763,1004.129333 1001.169617,1004.129333 
	C1092.647949,1154.084351 1183.524292,1303.052856 1274.688843,1452.493530 
	C1276.001709,1450.459839 1276.925659,1449.103149 1277.775513,1447.701294 
	C1348.160156,1331.590942 1418.551514,1215.484619 1488.910156,1099.358643 
	C1507.702148,1068.342773 1526.393555,1037.265869 1545.685791,1005.867004 
M436.421753,1151.195435 
	C436.214478,1151.387085 436.070160,1151.618164 435.065155,1152.050415 
	C393.326355,1152.050415 351.587555,1152.050415 309.959534,1152.050415 
	C309.959534,1253.606689 309.959534,1354.344849 309.959534,1455.076050 
	C534.932068,1455.076050 759.512695,1455.076050 984.302979,1455.076050 
	C984.302979,1353.983398 984.302979,1253.226440 984.302979,1151.885742 
	C941.797546,1151.885742 899.584045,1151.885742 856.987061,1151.885742 
	C856.987061,1102.380981 856.987061,1053.458618 856.987061,1004.366272 
	C716.854004,1004.366272 577.111694,1004.366272 436.916382,1004.366272 
	C436.916382,1006.576477 436.918091,1008.535339 436.916138,1010.494263 
	C436.870026,1057.324951 436.823486,1104.155640 436.421753,1151.195435 
M2238.062256,1152.097168 
	C2196.457031,1152.097168 2154.852051,1152.097168 2112.687988,1152.097168 
	C2112.687988,1102.556152 2112.687988,1053.517456 2112.687988,1004.461853 
	C1972.281738,1004.461853 1832.436279,1004.461853 1692.197998,1004.461853 
	C1692.197998,1053.727173 1692.197998,1102.642090 1692.197998,1152.077759 
	C1689.862549,1152.077759 1687.912842,1152.075928 1685.963013,1152.078125 
	C1645.979248,1152.124756 1605.995483,1152.171753 1565.492920,1152.113770 
	C1565.383789,1152.412354 1565.274658,1152.710815 1565.020142,1153.935303 
	C1565.020142,1254.347290 1565.020142,1354.759399 1565.020142,1455.108887 
	C1790.284546,1455.108887 2014.957275,1455.108887 2240.004150,1455.108887 
	C2240.004150,1453.005981 2240.003906,1451.201294 2240.003906,1449.396606 
	C2240.003906,1352.263916 2240.004639,1255.131104 2239.996826,1157.998413 
	C2239.996826,1156.336182 2239.892578,1154.674072 2239.890381,1152.485107 
	C2239.590576,1152.396240 2239.291016,1152.307495 2238.062256,1152.097168 
M317.112579,406.513519 
	C317.411255,406.601990 317.709900,406.690460 318.937378,406.901398 
	C331.889313,406.908386 344.841278,406.899719 357.793182,406.925629 
	C383.858429,406.977753 409.923645,407.048706 436.158264,407.487732 
	C436.303436,407.734833 436.509674,407.910065 436.896790,408.941895 
	C436.896790,449.895203 436.896790,490.848541 436.896790,532.044678 
	C695.437866,532.044678 953.484558,532.044678 1212.014038,532.044678 
	C1211.077881,530.287231 1210.376221,528.836060 1209.558472,527.453613 
	C1123.898193,382.654266 1038.215942,237.867844 952.642517,93.017204 
	C950.671875,89.681587 948.590027,88.594482 944.783081,88.596275 
	C737.463074,88.694046 530.143005,88.682922 322.822937,88.682915 
	C321.036804,88.682915 319.250702,88.682915 317.002167,88.682915 
	C317.002167,90.932892 317.002167,92.726212 317.002167,94.519531 
	C317.002167,196.679672 317.001373,298.839813 317.009064,400.999939 
	C317.009186,402.662659 317.112823,404.325378 317.112579,406.513519 
M132.500000,582.951111 
	C118.040253,582.951111 103.580505,582.951111 88.885620,582.951111 
	C88.885620,706.667908 88.885620,829.913757 88.885620,953.385498 
	C879.675232,953.385498 1670.219971,953.385498 2460.704834,953.385498 
	C2460.704834,829.772217 2460.704834,706.512634 2460.704834,582.951111 
	C1684.773926,582.951111 909.136963,582.951111 132.500000,582.951111 
M2024.500000,88.682846 
	C1884.688965,88.682861 1744.878052,88.688286 1605.067017,88.649597 
	C1601.798950,88.648689 1599.336670,88.847534 1597.308838,92.298325 
	C1511.828247,237.760696 1426.221436,383.148834 1340.642822,528.553589 
	C1340.031616,529.592224 1339.596558,530.734619 1338.983276,532.031433 
	C1597.101562,532.031433 1854.673828,532.031433 2112.871094,532.031433 
	C2112.871094,490.247833 2112.871094,448.716644 2112.871094,406.734253 
	C2153.060059,406.734253 2192.625732,406.734253 2232.231201,406.734253 
	C2232.231201,300.560150 2232.231201,194.844696 2232.231201,88.682716 
	C2163.076416,88.682716 2094.288330,88.682716 2024.500000,88.682846 
M1578.500000,1101.730713 
	C1599.439087,1101.730713 1620.378052,1101.730713 1641.541626,1101.730713 
	C1641.541626,1069.006836 1641.541626,1036.830322 1641.541626,1004.222351 
	C1630.899780,1004.222351 1620.602173,1004.373779 1610.313354,1004.137512 
	C1606.866211,1004.058350 1604.968628,1005.201904 1603.201782,1008.139587 
	C1585.193848,1038.083008 1567.032104,1067.933838 1548.931519,1097.821411 
	C1548.286987,1098.885620 1547.829834,1100.063110 1547.022339,1101.730469 
	C1557.598755,1101.730469 1567.549316,1101.730469 1578.500000,1101.730713 
M907.876526,1025.500000 
	C907.876526,1050.741821 907.876526,1075.983765 907.876526,1101.435547 
	C939.159241,1101.435547 969.831177,1101.435547 1001.105225,1101.435547 
	C1000.052490,1099.561279 999.310059,1098.138062 998.476440,1096.770386 
	C982.375122,1070.355713 965.699036,1044.267456 950.439697,1017.375305 
	C944.595459,1007.075745 938.189697,1002.207825 926.349731,1004.060486 
	C920.419373,1004.988525 914.223938,1004.222290 907.877075,1004.222290 
	C907.877075,1011.539673 907.877075,1018.019897 907.876526,1025.500000 
z"/>
<path fill="#F9E93B" opacity="1.000000" stroke="none" 
	d="
M38.761799,532.200806 
	C38.904873,532.480530 38.741257,532.679565 38.342701,532.918091 
	C38.040001,532.627014 38.155785,532.347961 38.761799,532.200806 
z"/>
<path fill="#FCF38C" opacity="1.000000" stroke="none" 
	d="
M1514.278076,1156.286011 
	C1514.374634,1156.134766 1514.537231,1156.026123 1514.599854,1156.112671 
	C1514.499878,1156.307983 1514.344116,1156.328491 1514.278076,1156.286011 
z"/>
<path fill="#121849" opacity="1.000000" stroke="none" 
	d="
M133.000000,582.951111 
	C909.136963,582.951111 1684.773926,582.951111 2460.704834,582.951111 
	C2460.704834,706.512634 2460.704834,829.772217 2460.704834,953.385498 
	C1670.219971,953.385498 879.675232,953.385498 88.885620,953.385498 
	C88.885620,829.913757 88.885620,706.667908 88.885620,582.951111 
	C103.580505,582.951111 118.040253,582.951111 133.000000,582.951111 
M699.461304,688.044189 
	C699.383606,688.366882 699.305908,688.689575 699.110718,689.941223 
	C699.110718,748.380920 699.110718,806.820618 699.110718,865.441162 
	C714.736633,865.441162 729.809692,865.441162 745.084717,865.441162 
	C745.084717,806.217773 745.084717,747.296570 745.084717,688.074646 
	C729.903442,688.074646 714.956482,688.074646 699.461304,688.044189 
M979.920166,808.600525 
	C979.452148,808.437683 978.984192,808.274841 978.006714,808.586548 
	C964.863342,821.583923 949.352417,827.940430 930.760071,824.813110 
	C900.490295,819.721558 886.243652,791.613342 893.545471,763.293152 
	C900.854309,734.945312 926.870972,722.611389 954.691711,730.177917 
	C964.445618,732.830566 972.155029,738.792236 979.105408,746.475037 
	C979.291626,746.277588 979.477844,746.080200 979.779968,744.967773 
	C979.787476,728.641846 979.872864,712.314941 979.685120,695.991272 
	C979.665833,694.312988 978.409058,691.675781 977.061584,691.132324 
	C957.568237,683.271179 937.444641,680.844177 916.798889,685.519836 
	C867.697021,696.640076 835.114441,744.792908 845.136963,795.995728 
	C853.398499,838.202271 889.020935,864.380249 927.005554,869.819275 
	C944.068481,872.262573 960.825012,868.619873 976.973145,862.806885 
	C978.258789,862.344116 979.666992,860.029358 979.680969,858.562439 
	C979.838013,842.073059 979.732971,825.581177 979.920166,808.600525 
M408.493408,865.759155 
	C413.254822,865.759155 418.016266,865.759155 422.783875,865.759155 
	C427.762573,831.476074 432.639191,797.896057 437.515808,764.315979 
	C439.063416,765.685791 439.654327,767.027588 440.197998,768.388184 
	C451.671082,797.099365 463.134918,825.814209 474.609589,854.524719 
	C479.200623,866.011963 479.215363,865.808105 491.558899,866.109619 
	C495.906616,866.215942 497.915009,864.763428 499.558167,860.762817 
	C512.189758,830.008728 525.070923,799.357178 537.888062,768.679382 
	C538.515198,767.178345 539.267517,765.729614 539.961487,764.256592 
	C542.702026,780.017334 544.174072,795.420410 546.081787,810.769409 
	C548.185669,827.697266 550.808533,844.560425 552.919739,861.487427 
	C553.351074,864.945129 554.538940,865.873718 557.869263,865.828430 
	C570.531738,865.656433 583.197876,865.771240 595.862610,865.739746 
	C597.086914,865.736694 598.310486,865.463135 599.715759,865.293213 
	C590.719055,805.980896 581.789978,747.114807 572.804199,687.874756 
	C558.982666,687.874756 545.344604,688.032349 531.714355,687.773560 
	C527.890320,687.700989 526.276550,689.062683 524.923096,692.478271 
	C513.716858,720.758606 502.320343,748.963562 490.968628,777.186218 
	C490.335297,778.760864 489.589539,780.290344 488.588806,782.528015 
	C476.859833,751.651306 465.456848,721.668884 454.101685,691.668457 
	C453.240082,689.392029 452.548157,687.730774 449.404572,687.783630 
	C436.410217,688.002319 423.408997,687.962952 410.412720,687.811279 
	C407.375793,687.775940 406.370728,689.074097 405.996643,691.762329 
	C404.972870,699.119385 403.918091,706.474792 402.701141,713.801819 
	C399.799103,731.275024 396.813293,748.734497 393.830719,766.194214 
	C389.679138,790.497192 385.489655,814.793701 381.337372,839.096619 
	C379.844666,847.833252 378.412994,856.580383 376.880615,865.759094 
	C387.538239,865.759094 397.516754,865.759094 408.493408,865.759155 
M2041.941040,856.445190 
	C2041.941040,823.444214 2041.941040,790.443298 2041.941040,756.301697 
	C2043.560059,758.292908 2044.307983,759.177856 2045.018555,760.091736 
	C2069.037598,790.988281 2093.471436,821.576416 2116.818359,852.972595 
	C2123.988281,862.614380 2131.194824,867.453186 2143.407471,865.989868 
	C2153.052490,864.834167 2162.946533,865.757507 2172.821045,865.757507 
	C2172.821045,806.172791 2172.821045,747.148254 2172.821045,688.222046 
	C2157.395264,688.222046 2142.333496,688.222046 2126.829590,688.222046 
	C2126.829590,724.252563 2126.829590,759.939209 2126.829590,796.538696 
	C2125.160645,794.538330 2124.089111,793.327209 2123.097168,792.053833 
	C2099.148682,761.311890 2074.833740,730.843689 2051.504395,699.638672 
	C2044.835205,690.718079 2038.111206,686.503845 2026.906616,687.655029 
	C2016.738647,688.699768 2006.378784,687.876038 1995.968018,687.876038 
	C1995.968018,747.364929 1995.968018,806.274719 1995.968018,865.470886 
	C2011.270630,865.470886 2026.338135,865.470886 2041.941040,865.470886 
	C2041.941040,862.654724 2041.941040,860.040100 2041.941040,856.445190 
M1668.125977,770.666138 
	C1668.029785,769.261292 1667.933594,767.856384 1667.844604,766.556885 
	C1637.220825,766.556885 1607.130493,766.556885 1576.873291,766.556885 
	C1576.873291,778.645081 1576.873291,790.416138 1576.873291,802.756226 
	C1589.354492,802.756226 1601.601318,802.756226 1614.146973,802.756226 
	C1613.904053,804.656128 1613.837280,805.977844 1613.556763,807.252380 
	C1610.019897,823.320435 1596.396362,833.907898 1578.414062,833.927246 
	C1562.973145,833.943787 1550.335449,827.634338 1541.438354,814.914490 
	C1526.638672,793.755798 1525.980103,765.316223 1539.727661,742.907837 
	C1548.848145,728.041626 1562.291626,720.583618 1579.965454,721.993958 
	C1596.436646,723.308411 1606.972046,732.828003 1613.691406,747.298218 
	C1614.086914,748.149719 1614.611084,748.941528 1615.161255,749.912842 
	C1629.746948,743.777771 1644.053833,737.760071 1658.588989,731.646301 
	C1648.929443,711.080505 1634.755859,695.985352 1613.870728,688.169189 
	C1595.509888,681.297729 1576.543091,680.445862 1557.256592,683.934814 
	C1527.827637,689.258667 1505.214478,704.270691 1492.205200,731.429504 
	C1478.475342,760.092590 1477.891479,789.700012 1490.329346,819.072083 
	C1498.496216,838.358521 1512.404053,852.697876 1531.398438,861.582031 
	C1551.355225,870.916199 1572.187988,874.104553 1594.221924,870.273926 
	C1625.068848,864.911133 1646.897461,848.320435 1659.582031,819.848755 
	C1666.395996,804.554016 1667.662231,788.129578 1668.125977,770.666138 
M1195.284790,723.499939 
	C1195.284790,734.284241 1195.284790,745.068604 1195.284790,756.057068 
	C1172.887329,756.057068 1151.013916,756.057068 1128.535889,756.057068 
	C1128.535889,733.206238 1128.535889,710.667175 1128.535889,688.206055 
	C1112.850708,688.206055 1097.773438,688.206055 1082.612549,688.206055 
	C1082.612549,747.446228 1082.612549,806.346985 1082.612549,865.305420 
	C1098.108276,865.305420 1113.297363,865.305420 1128.950439,865.305420 
	C1128.950439,840.963013 1128.950439,817.055908 1128.950439,793.229126 
	C1151.315186,793.229126 1173.206543,793.229126 1195.545654,793.229126 
	C1195.545654,817.526611 1195.545654,841.447021 1195.545654,865.434509 
	C1211.074097,865.434509 1226.148804,865.434509 1241.465332,865.434509 
	C1241.465332,806.221436 1241.465332,747.317200 1241.465332,688.228699 
	C1226.027588,688.228699 1210.833984,688.228699 1195.284912,688.228699 
	C1195.284912,699.891235 1195.284912,711.195557 1195.284790,723.499939 
M1793.128052,716.622925 
	C1774.089478,766.195374 1755.050903,815.767883 1735.852051,865.757629 
	C1751.703369,865.757629 1766.847534,865.841370 1781.987183,865.618286 
	C1783.383789,865.597717 1785.417358,863.910461 1786.022827,862.508179 
	C1789.511963,854.426636 1792.519287,846.136169 1796.052856,838.075684 
	C1796.693604,836.613892 1799.007568,834.981262 1800.566284,834.963745 
	C1819.549805,834.751038 1838.536865,834.875610 1857.522217,834.768372 
	C1860.132812,834.753662 1861.290771,835.623230 1862.149292,838.065674 
	C1864.958740,846.057190 1868.187622,853.902344 1870.947021,861.910034 
	C1871.994507,864.950195 1873.532104,865.919800 1876.699951,865.835693 
	C1885.187744,865.610291 1893.685303,865.758789 1902.179077,865.758850 
	C1908.420776,865.758850 1914.662354,865.758911 1921.340942,865.758911 
	C1920.993164,864.262024 1920.898315,863.452820 1920.619629,862.712646 
	C1899.082275,805.496643 1877.515259,748.291809 1856.033936,691.054749 
	C1855.127808,688.640503 1853.965454,687.793884 1851.380493,687.815857 
	C1836.892212,687.939331 1822.401611,687.953369 1807.913818,687.806641 
	C1805.137207,687.778564 1803.832031,688.597229 1802.878418,691.241211 
	C1799.891724,699.521606 1796.598877,707.691528 1793.128052,716.622925 
M1342.021606,788.500000 
	C1342.021606,814.098145 1342.021606,839.696228 1342.021606,865.445312 
	C1357.642334,865.445312 1372.708374,865.445312 1387.804321,865.445312 
	C1387.804321,806.124268 1387.804321,747.102844 1387.804321,688.231812 
	C1372.363647,688.231812 1357.304688,688.231812 1342.021606,688.231812 
	C1342.021606,721.564392 1342.021606,754.532227 1342.021606,788.500000 
z"/>
<path fill="#121849" opacity="1.000000" stroke="none" 
	d="
M435.988861,407.111908 
	C409.923645,407.048706 383.858429,406.977753 357.793182,406.925629 
	C344.841278,406.899719 331.889313,406.908386 318.378540,406.665466 
	C317.642609,406.223175 317.425415,406.076019 317.168121,405.988098 
	C317.112823,404.325378 317.009186,402.662659 317.009064,400.999939 
	C317.001373,298.839813 317.002167,196.679672 317.002167,94.519531 
	C317.002167,92.726212 317.002167,90.932892 317.002167,88.682915 
	C319.250702,88.682915 321.036804,88.682915 322.822937,88.682915 
	C530.143005,88.682922 737.463074,88.694046 944.783081,88.596275 
	C948.590027,88.594482 950.671875,89.681587 952.642517,93.017204 
	C1038.215942,237.867844 1123.898193,382.654266 1209.558472,527.453613 
	C1210.376221,528.836060 1211.077881,530.287231 1212.014038,532.044678 
	C953.484558,532.044678 695.437866,532.044678 436.896790,532.044678 
	C436.896790,490.848541 436.896790,449.895203 436.889740,408.211395 
	C436.584747,407.357910 436.286804,407.234924 435.988861,407.111908 
z"/>
<path fill="#121849" opacity="1.000000" stroke="none" 
	d="
M2025.000000,88.682785 
	C2094.288330,88.682716 2163.076416,88.682716 2232.231201,88.682716 
	C2232.231201,194.844696 2232.231201,300.560150 2232.231201,406.734253 
	C2192.625732,406.734253 2153.060059,406.734253 2112.871094,406.734253 
	C2112.871094,448.716644 2112.871094,490.247833 2112.871094,532.031433 
	C1854.673828,532.031433 1597.101562,532.031433 1338.983276,532.031433 
	C1339.596558,530.734619 1340.031616,529.592224 1340.642822,528.553589 
	C1426.221436,383.148834 1511.828247,237.760696 1597.308838,92.298325 
	C1599.336670,88.847534 1601.798950,88.648689 1605.067017,88.649597 
	C1744.878052,88.688286 1884.688965,88.682861 2025.000000,88.682785 
z"/>
<path fill="#121849" opacity="1.000000" stroke="none" 
	d="
M1566.011719,1152.218750 
	C1605.995483,1152.171753 1645.979248,1152.124756 1685.963013,1152.078125 
	C1687.912842,1152.075928 1689.862549,1152.077759 1692.197998,1152.077759 
	C1692.197998,1102.642090 1692.197998,1053.727173 1692.197998,1004.461853 
	C1832.436279,1004.461853 1972.281738,1004.461853 2112.687988,1004.461853 
	C2112.687988,1053.517456 2112.687988,1102.556152 2112.687988,1152.097168 
	C2154.852051,1152.097168 2196.457031,1152.097168 2238.623047,1152.332397 
	C2239.362061,1152.773438 2239.579834,1152.921509 2239.836670,1153.011841 
	C2239.892578,1154.674072 2239.996826,1156.336182 2239.996826,1157.998413 
	C2240.004639,1255.131104 2240.003906,1352.263916 2240.003906,1449.396606 
	C2240.003906,1451.201294 2240.004150,1453.005981 2240.004150,1455.108887 
	C2014.957275,1455.108887 1790.284546,1455.108887 1565.020142,1455.108887 
	C1565.020142,1354.759399 1565.020142,1254.347290 1565.270996,1153.383545 
	C1565.754272,1152.682617 1565.917480,1152.478271 1566.011719,1152.218750 
z"/>
<path fill="#121849" opacity="1.000000" stroke="none" 
	d="
M436.777039,1150.986328 
	C436.823486,1104.155640 436.870026,1057.324951 436.916138,1010.494263 
	C436.918091,1008.535339 436.916382,1006.576477 436.916382,1004.366272 
	C577.111694,1004.366272 716.854004,1004.366272 856.987061,1004.366272 
	C856.987061,1053.458618 856.987061,1102.380981 856.987061,1151.885742 
	C899.584045,1151.885742 941.797546,1151.885742 984.302979,1151.885742 
	C984.302979,1253.226440 984.302979,1353.983398 984.302979,1455.076050 
	C759.512695,1455.076050 534.932068,1455.076050 309.959534,1455.076050 
	C309.959534,1354.344849 309.959534,1253.606689 309.959534,1152.050415 
	C351.587555,1152.050415 393.326355,1152.050415 435.797607,1151.991211 
	C436.612427,1151.616821 436.694763,1151.301514 436.777039,1150.986328 
z"/>
<path fill="#121849" opacity="1.000000" stroke="none" 
	d="
M1545.131104,1006.216919 
	C1526.393555,1037.265869 1507.702148,1068.342773 1488.910156,1099.358643 
	C1418.551514,1215.484619 1348.160156,1331.590942 1277.775513,1447.701294 
	C1276.925659,1449.103149 1276.001709,1450.459839 1274.688843,1452.493530 
	C1183.524292,1303.052856 1092.647949,1154.084351 1001.169617,1004.129333 
	C1182.931763,1004.129333 1363.475586,1004.129333 1544.497681,1004.515686 
	C1545.027710,1005.340332 1545.079346,1005.778625 1545.131104,1006.216919 
z"/>
<path fill="#FFFFFF" opacity="1.000000" stroke="none" 
	d="
M1578.000000,1101.730591 
	C1567.549316,1101.730469 1557.598755,1101.730469 1547.022339,1101.730469 
	C1547.829834,1100.063110 1548.286987,1098.885620 1548.931519,1097.821411 
	C1567.032104,1067.933838 1585.193848,1038.083008 1603.201782,1008.139587 
	C1604.968628,1005.201904 1606.866211,1004.058350 1610.313354,1004.137512 
	C1620.602173,1004.373779 1630.899780,1004.222351 1641.541626,1004.222351 
	C1641.541626,1036.830322 1641.541626,1069.006836 1641.541626,1101.730713 
	C1620.378052,1101.730713 1599.439087,1101.730713 1578.000000,1101.730591 
z"/>
<path fill="#FFFFFF" opacity="1.000000" stroke="none" 
	d="
M907.876831,1025.000000 
	C907.877075,1018.019897 907.877075,1011.539673 907.877075,1004.222290 
	C914.223938,1004.222290 920.419373,1004.988525 926.349731,1004.060486 
	C938.189697,1002.207825 944.595459,1007.075745 950.439697,1017.375305 
	C965.699036,1044.267456 982.375122,1070.355713 998.476440,1096.770386 
	C999.310059,1098.138062 1000.052490,1099.561279 1001.105225,1101.435547 
	C969.831177,1101.435547 939.159241,1101.435547 907.876526,1101.435547 
	C907.876526,1075.983765 907.876526,1050.741821 907.876831,1025.000000 
z"/>
<path fill="#3C3D40" opacity="1.000000" stroke="none" 
	d="
M1545.408447,1006.041992 
	C1545.079346,1005.778625 1545.027710,1005.340332 1544.959473,1004.572021 
	C1545.190674,1004.783691 1545.438232,1005.325378 1545.408447,1006.041992 
z"/>
<path fill="#D7C820" opacity="1.000000" stroke="none" 
	d="
M436.599426,1151.090820 
	C436.694763,1151.301514 436.612427,1151.616821 436.259399,1151.910156 
	C436.070160,1151.618164 436.214478,1151.387085 436.599426,1151.090820 
z"/>
<path fill="#313442" opacity="1.000000" stroke="none" 
	d="
M1565.752319,1152.166260 
	C1565.917480,1152.478271 1565.754272,1152.682617 1565.343750,1152.920532 
	C1565.274658,1152.710815 1565.383789,1152.412354 1565.752319,1152.166260 
z"/>
<path fill="#313442" opacity="1.000000" stroke="none" 
	d="
M2239.863525,1152.748535 
	C2239.579834,1152.921509 2239.362061,1152.773438 2239.087402,1152.393066 
	C2239.291016,1152.307495 2239.590576,1152.396240 2239.863525,1152.748535 
z"/>
<path fill="#D7C820" opacity="1.000000" stroke="none" 
	d="
M436.073547,407.299805 
	C436.286804,407.234924 436.584747,407.357910 436.829834,407.747131 
	C436.509674,407.910065 436.303436,407.734833 436.073547,407.299805 
z"/>
<path fill="#313442" opacity="1.000000" stroke="none" 
	d="
M317.140350,406.250793 
	C317.425415,406.076019 317.642609,406.223175 317.914124,406.604248 
	C317.709900,406.690460 317.411255,406.601990 317.140350,406.250793 
z"/>
<path fill="#F7E518" opacity="1.000000" stroke="none" 
	d="
M407.994324,865.759155 
	C397.516754,865.759094 387.538239,865.759094 376.880615,865.759094 
	C378.412994,856.580383 379.844666,847.833252 381.337372,839.096619 
	C385.489655,814.793701 389.679138,790.497192 393.830719,766.194214 
	C396.813293,748.734497 399.799103,731.275024 402.701141,713.801819 
	C403.918091,706.474792 404.972870,699.119385 405.996643,691.762329 
	C406.370728,689.074097 407.375793,687.775940 410.412720,687.811279 
	C423.408997,687.962952 436.410217,688.002319 449.404572,687.783630 
	C452.548157,687.730774 453.240082,689.392029 454.101685,691.668457 
	C465.456848,721.668884 476.859833,751.651306 488.588806,782.528015 
	C489.589539,780.290344 490.335297,778.760864 490.968628,777.186218 
	C502.320343,748.963562 513.716858,720.758606 524.923096,692.478271 
	C526.276550,689.062683 527.890320,687.700989 531.714355,687.773560 
	C545.344604,688.032349 558.982666,687.874756 572.804199,687.874756 
	C581.789978,747.114807 590.719055,805.980896 599.715759,865.293213 
	C598.310486,865.463135 597.086914,865.736694 595.862610,865.739746 
	C583.197876,865.771240 570.531738,865.656433 557.869263,865.828430 
	C554.538940,865.873718 553.351074,864.945129 552.919739,861.487427 
	C550.808533,844.560425 548.185669,827.697266 546.081787,810.769409 
	C544.174072,795.420410 542.702026,780.017334 539.961487,764.256592 
	C539.267517,765.729614 538.515198,767.178345 537.888062,768.679382 
	C525.070923,799.357178 512.189758,830.008728 499.558167,860.762817 
	C497.915009,864.763428 495.906616,866.215942 491.558899,866.109619 
	C479.215363,865.808105 479.200623,866.011963 474.609589,854.524719 
	C463.134918,825.814209 451.671082,797.099365 440.197998,768.388184 
	C439.654327,767.027588 439.063416,765.685791 437.515808,764.315979 
	C432.639191,797.896057 427.762573,831.476074 422.783875,865.759155 
	C418.016266,865.759155 413.254822,865.759155 407.994324,865.759155 
z"/>
<path fill="#F8E618" opacity="1.000000" stroke="none" 
	d="
M2041.941040,856.935303 
	C2041.941040,860.040100 2041.941040,862.654724 2041.941040,865.470886 
	C2026.338135,865.470886 2011.270630,865.470886 1995.968018,865.470886 
	C1995.968018,806.274719 1995.968018,747.364929 1995.968018,687.876038 
	C2006.378784,687.876038 2016.738647,688.699768 2026.906616,687.655029 
	C2038.111206,686.503845 2044.835205,690.718079 2051.504395,699.638672 
	C2074.833740,730.843689 2099.148682,761.311890 2123.097168,792.053833 
	C2124.089111,793.327209 2125.160645,794.538330 2126.829590,796.538696 
	C2126.829590,759.939209 2126.829590,724.252563 2126.829590,688.222046 
	C2142.333496,688.222046 2157.395264,688.222046 2172.821045,688.222046 
	C2172.821045,747.148254 2172.821045,806.172791 2172.821045,865.757507 
	C2162.946533,865.757507 2153.052490,864.834167 2143.407471,865.989868 
	C2131.194824,867.453186 2123.988281,862.614380 2116.818359,852.972595 
	C2093.471436,821.576416 2069.037598,790.988281 2045.018555,760.091736 
	C2044.307983,759.177856 2043.560059,758.292908 2041.941040,756.301697 
	C2041.941040,790.443298 2041.941040,823.444214 2041.941040,856.935303 
z"/>
<path fill="#F7E518" opacity="1.000000" stroke="none" 
	d="
M1668.117188,771.148804 
	C1667.662231,788.129578 1666.395996,804.554016 1659.582031,819.848755 
	C1646.897461,848.320435 1625.068848,864.911133 1594.221924,870.273926 
	C1572.187988,874.104553 1551.355225,870.916199 1531.398438,861.582031 
	C1512.404053,852.697876 1498.496216,838.358521 1490.329346,819.072083 
	C1477.891479,789.700012 1478.475342,760.092590 1492.205200,731.429504 
	C1505.214478,704.270691 1527.827637,689.258667 1557.256592,683.934814 
	C1576.543091,680.445862 1595.509888,681.297729 1613.870728,688.169189 
	C1634.755859,695.985352 1648.929443,711.080505 1658.588989,731.646301 
	C1644.053833,737.760071 1629.746948,743.777771 1615.161255,749.912842 
	C1614.611084,748.941528 1614.086914,748.149719 1613.691406,747.298218 
	C1606.972046,732.828003 1596.436646,723.308411 1579.965454,721.993958 
	C1562.291626,720.583618 1548.848145,728.041626 1539.727661,742.907837 
	C1525.980103,765.316223 1526.638672,793.755798 1541.438354,814.914490 
	C1550.335449,827.634338 1562.973145,833.943787 1578.414062,833.927246 
	C1596.396362,833.907898 1610.019897,823.320435 1613.556763,807.252380 
	C1613.837280,805.977844 1613.904053,804.656128 1614.146973,802.756226 
	C1601.601318,802.756226 1589.354492,802.756226 1576.873291,802.756226 
	C1576.873291,790.416138 1576.873291,778.645081 1576.873291,766.556885 
	C1607.130493,766.556885 1637.220825,766.556885 1667.844604,766.556885 
	C1667.933594,767.856384 1668.029785,769.261292 1668.117188,771.148804 
z"/>
<path fill="#F8E618" opacity="1.000000" stroke="none" 
	d="
M1195.284912,722.999878 
	C1195.284912,711.195557 1195.284912,699.891235 1195.284912,688.228699 
	C1210.833984,688.228699 1226.027588,688.228699 1241.465332,688.228699 
	C1241.465332,747.317200 1241.465332,806.221436 1241.465332,865.434509 
	C1226.148804,865.434509 1211.074097,865.434509 1195.545654,865.434509 
	C1195.545654,841.447021 1195.545654,817.526611 1195.545654,793.229126 
	C1173.206543,793.229126 1151.315186,793.229126 1128.950439,793.229126 
	C1128.950439,817.055908 1128.950439,840.963013 1128.950439,865.305420 
	C1113.297363,865.305420 1098.108276,865.305420 1082.612549,865.305420 
	C1082.612549,806.346985 1082.612549,747.446228 1082.612549,688.206055 
	C1097.773438,688.206055 1112.850708,688.206055 1128.535889,688.206055 
	C1128.535889,710.667175 1128.535889,733.206238 1128.535889,756.057068 
	C1151.013916,756.057068 1172.887329,756.057068 1195.284790,756.057068 
	C1195.284790,745.068604 1195.284790,734.284241 1195.284912,722.999878 
z"/>
<path fill="#F7E518" opacity="1.000000" stroke="none" 
	d="
M1793.276367,716.263550 
	C1796.598877,707.691528 1799.891724,699.521606 1802.878418,691.241211 
	C1803.832031,688.597229 1805.137207,687.778564 1807.913818,687.806641 
	C1822.401611,687.953369 1836.892212,687.939331 1851.380493,687.815857 
	C1853.965454,687.793884 1855.127808,688.640503 1856.033936,691.054749 
	C1877.515259,748.291809 1899.082275,805.496643 1920.619629,862.712646 
	C1920.898315,863.452820 1920.993164,864.262024 1921.340942,865.758911 
	C1914.662354,865.758911 1908.420776,865.758850 1902.179077,865.758850 
	C1893.685303,865.758789 1885.187744,865.610291 1876.699951,865.835693 
	C1873.532104,865.919800 1871.994507,864.950195 1870.947021,861.910034 
	C1868.187622,853.902344 1864.958740,846.057190 1862.149292,838.065674 
	C1861.290771,835.623230 1860.132812,834.753662 1857.522217,834.768372 
	C1838.536865,834.875610 1819.549805,834.751038 1800.566284,834.963745 
	C1799.007568,834.981262 1796.693604,836.613892 1796.052856,838.075684 
	C1792.519287,846.136169 1789.511963,854.426636 1786.022827,862.508179 
	C1785.417358,863.910461 1783.383789,865.597717 1781.987183,865.618286 
	C1766.847534,865.841370 1751.703369,865.757629 1735.852051,865.757629 
	C1755.050903,815.767883 1774.089478,766.195374 1793.276367,716.263550 
M1844.283936,787.235596 
	C1839.435059,772.621765 1834.586060,758.007935 1829.282959,742.025513 
	C1822.633179,761.765503 1816.411621,780.234375 1809.981567,799.322205 
	C1821.649414,799.322205 1832.463501,799.322205 1843.277710,799.322205 
	C1844.748779,799.322205 1846.219727,799.322205 1848.246826,799.322205 
	C1846.916016,795.160522 1845.764404,791.559265 1844.283936,787.235596 
z"/>
<path fill="#F7E518" opacity="1.000000" stroke="none" 
	d="
M979.000000,746.000000 
	C972.155029,738.792236 964.445618,732.830566 954.691711,730.177917 
	C926.870972,722.611389 900.854309,734.945312 893.545471,763.293152 
	C886.243652,791.613342 900.490295,819.721558 930.760071,824.813110 
	C949.352417,827.940430 964.863342,821.583923 978.518188,808.640747 
	C979.252502,808.826599 979.475403,808.958313 979.698242,809.089966 
	C979.732971,825.581177 979.838013,842.073059 979.680969,858.562439 
	C979.666992,860.029358 978.258789,862.344116 976.973145,862.806885 
	C960.825012,868.619873 944.068481,872.262573 927.005554,869.819275 
	C889.020935,864.380249 853.398499,838.202271 845.136963,795.995728 
	C835.114441,744.792908 867.697021,696.640076 916.798889,685.519836 
	C937.444641,680.844177 957.568237,683.271179 977.061584,691.132324 
	C978.409058,691.675781 979.665833,694.312988 979.685120,695.991272 
	C979.872864,712.314941 979.787476,728.641846 979.545898,745.397461 
	C979.311890,745.827148 979.000000,746.000000 979.000000,746.000000 
z"/>
<path fill="#F8E618" opacity="1.000000" stroke="none" 
	d="
M1342.021606,788.000000 
	C1342.021606,754.532227 1342.021606,721.564392 1342.021606,688.231812 
	C1357.304688,688.231812 1372.363647,688.231812 1387.804321,688.231812 
	C1387.804321,747.102844 1387.804321,806.124268 1387.804321,865.445312 
	C1372.708374,865.445312 1357.642334,865.445312 1342.021606,865.445312 
	C1342.021606,839.696228 1342.021606,814.098145 1342.021606,788.000000 
z"/>
<path fill="#F8E618" opacity="1.000000" stroke="none" 
	d="
M700.009460,688.074646 
	C714.956482,688.074646 729.903442,688.074646 745.084717,688.074646 
	C745.084717,747.296570 745.084717,806.217773 745.084717,865.441162 
	C729.809692,865.441162 714.736633,865.441162 699.110718,865.441162 
	C699.110718,806.820618 699.110718,748.380920 699.350586,689.368713 
	C699.801270,688.597046 699.940979,688.356506 700.009460,688.074646 
z"/>
<path fill="#B5AA26" opacity="1.000000" stroke="none" 
	d="
M979.809204,808.845215 
	C979.475403,808.958313 979.252502,808.826599 978.772949,808.403442 
	C978.984192,808.274841 979.452148,808.437683 979.809204,808.845215 
z"/>
<path fill="#D4C61F" opacity="1.000000" stroke="none" 
	d="
M699.735352,688.059448 
	C699.940979,688.356506 699.801270,688.597046 699.409302,688.904236 
	C699.305908,688.689575 699.383606,688.366882 699.735352,688.059448 
z"/>
<path fill="#B5AA26" opacity="1.000000" stroke="none" 
	d="
M979.052734,746.237549 
	C979.000000,746.000000 979.311890,745.827148 979.487976,745.854980 
	C979.477844,746.080200 979.291626,746.277588 979.052734,746.237549 
z"/>
<path fill="#151A48" opacity="1.000000" stroke="none" 
	d="
M1844.448486,787.596802 
	C1845.764404,791.559265 1846.916016,795.160522 1848.246826,799.322205 
	C1846.219727,799.322205 1844.748779,799.322205 1843.277710,799.322205 
	C1832.463501,799.322205 1821.649414,799.322205 1809.981567,799.322205 
	C1816.411621,780.234375 1822.633179,761.765503 1829.282959,742.025513 
	C1834.586060,758.007935 1839.435059,772.621765 1844.448486,787.596802 
z"/>
</svg>